<mxfile host="app.diagrams.net" modified="2021-12-06T04:26:13.269Z" agent="5.0 (Windows)" etag="EGNxTle8kBKA42KyK-dk" version="15.8.2" type="github">
  <diagram id="M9_Y6eJo72a2D9YSkRky" name="Page-1">
    <mxGraphModel dx="2500" dy="1868" grid="0" gridSize="10" guides="1" tooltips="1" connect="1" arrows="1" fold="1" page="0" pageScale="1" pageWidth="850" pageHeight="1100" math="0" shadow="0">
      <root>
        <mxCell id="0" />
        <mxCell id="1" style="" parent="0" />
        <mxCell id="19sE1abQ0TIRROIsZksC-42" value="" style="shape=folder;fontStyle=1;tabWidth=80;tabHeight=30;tabPosition=left;html=1;boundedLbl=1;labelBackgroundColor=default;fontColor=default;strokeColor=default;fillColor=default;" vertex="1" parent="1">
          <mxGeometry x="97" y="854" width="1058" height="851" as="geometry" />
        </mxCell>
        <mxCell id="19sE1abQ0TIRROIsZksC-46" value="" style="group" vertex="1" connectable="0" parent="1">
          <mxGeometry x="410" y="423" width="340" height="315" as="geometry" />
        </mxCell>
        <mxCell id="U3ejUCYZ4DHuvYuuj-Lv-6" value="" style="shape=folder;fontStyle=1;tabWidth=80;tabHeight=30;tabPosition=left;html=1;boundedLbl=1;labelBackgroundColor=default;fontColor=default;strokeColor=default;fillColor=default;" parent="19sE1abQ0TIRROIsZksC-46" vertex="1">
          <mxGeometry width="340" height="315" as="geometry" />
        </mxCell>
        <mxCell id="U3ejUCYZ4DHuvYuuj-Lv-173" value="Controller" style="text;html=1;align=center;verticalAlign=middle;resizable=0;points=[];autosize=1;strokeColor=none;fillColor=none;fontColor=default;" parent="19sE1abQ0TIRROIsZksC-46" vertex="1">
          <mxGeometry x="7.75" y="5" width="62" height="18" as="geometry" />
        </mxCell>
        <mxCell id="U3ejUCYZ4DHuvYuuj-Lv-47" value="&amp;lt;&amp;lt;Interface&amp;gt;&amp;gt;&lt;br&gt;ActionListenerCommand" style="swimlane;fontStyle=0;align=center;verticalAlign=top;childLayout=stackLayout;horizontal=1;startSize=38;horizontalStack=0;resizeParent=1;resizeParentMax=0;resizeLast=0;collapsible=0;marginBottom=0;html=1;fillColor=default;strokeColor=default;fontColor=default;labelBackgroundColor=default;" parent="19sE1abQ0TIRROIsZksC-46" vertex="1">
          <mxGeometry x="80" y="38" width="196.12" height="58" as="geometry" />
        </mxCell>
        <mxCell id="19sE1abQ0TIRROIsZksC-119" value="+ execute():&amp;nbsp; void" style="text;html=1;strokeColor=none;fillColor=none;align=left;verticalAlign=middle;spacingLeft=4;spacingRight=4;overflow=hidden;rotatable=0;points=[[0,0.5],[1,0.5]];portConstraint=eastwest;fontColor=default;labelBackgroundColor=default;" vertex="1" parent="U3ejUCYZ4DHuvYuuj-Lv-47">
          <mxGeometry y="38" width="196.12" height="20" as="geometry" />
        </mxCell>
        <mxCell id="19sE1abQ0TIRROIsZksC-47" value="" style="group" vertex="1" connectable="0" parent="1">
          <mxGeometry x="-320" y="321" width="613" height="511" as="geometry" />
        </mxCell>
        <mxCell id="U3ejUCYZ4DHuvYuuj-Lv-3" value="" style="shape=folder;fontStyle=1;tabWidth=80;tabHeight=30;tabPosition=left;html=1;boundedLbl=1;labelBackgroundColor=default;fontColor=default;strokeColor=default;fillColor=default;" parent="19sE1abQ0TIRROIsZksC-47" vertex="1">
          <mxGeometry width="613" height="511.00000000000006" as="geometry" />
        </mxCell>
        <mxCell id="U3ejUCYZ4DHuvYuuj-Lv-172" value="View" style="text;html=1;align=center;verticalAlign=middle;resizable=0;points=[];autosize=1;strokeColor=none;fillColor=none;fontColor=default;" parent="19sE1abQ0TIRROIsZksC-47" vertex="1">
          <mxGeometry x="22" y="5.907514450867053" width="36" height="18" as="geometry" />
        </mxCell>
        <mxCell id="19sE1abQ0TIRROIsZksC-27" style="edgeStyle=orthogonalEdgeStyle;rounded=0;orthogonalLoop=1;jettySize=auto;html=1;exitX=0.508;exitY=0.056;exitDx=0;exitDy=0;exitPerimeter=0;entryX=0.5;entryY=1;entryDx=0;entryDy=0;entryPerimeter=0;endArrow=none;endFill=0;strokeWidth=2;" edge="1" parent="1" source="U3ejUCYZ4DHuvYuuj-Lv-3" target="U3ejUCYZ4DHuvYuuj-Lv-1">
          <mxGeometry relative="1" as="geometry">
            <Array as="points" />
          </mxGeometry>
        </mxCell>
        <mxCell id="U3ejUCYZ4DHuvYuuj-Lv-4" value="" style="rounded=0;orthogonalLoop=1;jettySize=auto;html=1;labelBackgroundColor=default;fontColor=default;endArrow=none;endFill=0;strokeColor=default;strokeWidth=2;entryX=0;entryY=0;entryDx=613;entryDy=274.5;entryPerimeter=0;exitX=0;exitY=0;exitDx=0;exitDy=172.5;exitPerimeter=0;" parent="1" source="U3ejUCYZ4DHuvYuuj-Lv-6" edge="1" target="U3ejUCYZ4DHuvYuuj-Lv-3">
          <mxGeometry relative="1" as="geometry">
            <mxPoint x="318" y="632" as="targetPoint" />
            <mxPoint x="316" y="664" as="sourcePoint" />
          </mxGeometry>
        </mxCell>
        <mxCell id="19sE1abQ0TIRROIsZksC-41" style="edgeStyle=none;rounded=0;orthogonalLoop=1;jettySize=auto;html=1;exitX=0.5;exitY=1;exitDx=0;exitDy=0;exitPerimeter=0;entryX=0;entryY=0;entryDx=483.00000000000006;entryDy=30;entryPerimeter=0;endArrow=none;endFill=0;strokeWidth=2;" edge="1" parent="1" source="U3ejUCYZ4DHuvYuuj-Lv-6" target="19sE1abQ0TIRROIsZksC-42">
          <mxGeometry relative="1" as="geometry">
            <mxPoint x="564.5" y="901.0000000000005" as="targetPoint" />
          </mxGeometry>
        </mxCell>
        <mxCell id="U3ejUCYZ4DHuvYuuj-Lv-7" style="edgeStyle=orthogonalEdgeStyle;rounded=0;orthogonalLoop=1;jettySize=auto;html=1;entryX=0.5;entryY=1;entryDx=0;entryDy=0;fontColor=default;endArrow=block;endFill=0;strokeColor=default;labelBackgroundColor=default;strokeWidth=2;exitX=0.5;exitY=0;exitDx=0;exitDy=0;" parent="1" source="YJhYwYxTLhJLAMdy0_Dd-28" target="U3ejUCYZ4DHuvYuuj-Lv-45" edge="1">
          <mxGeometry relative="1" as="geometry">
            <mxPoint x="-35" y="940" as="sourcePoint" />
          </mxGeometry>
        </mxCell>
        <mxCell id="U3ejUCYZ4DHuvYuuj-Lv-11" style="edgeStyle=orthogonalEdgeStyle;rounded=0;orthogonalLoop=1;jettySize=auto;html=1;entryX=0.5;entryY=1;entryDx=0;entryDy=0;labelBackgroundColor=default;fontColor=default;endArrow=block;endFill=0;strokeColor=default;strokeWidth=2;" parent="1" source="U3ejUCYZ4DHuvYuuj-Lv-12" target="19sE1abQ0TIRROIsZksC-35" edge="1">
          <mxGeometry relative="1" as="geometry">
            <mxPoint x="141" y="400.0000000000001" as="targetPoint" />
          </mxGeometry>
        </mxCell>
        <mxCell id="U3ejUCYZ4DHuvYuuj-Lv-12" value="ProgFrame" style="swimlane;fontStyle=0;align=center;verticalAlign=top;childLayout=stackLayout;horizontal=1;startSize=30;horizontalStack=0;resizeParent=1;resizeParentMax=0;resizeLast=0;collapsible=0;marginBottom=0;html=1;fillColor=default;strokeColor=default;fontColor=default;labelBackgroundColor=default;" parent="1" vertex="1">
          <mxGeometry x="17" y="426.5" width="248" height="130" as="geometry" />
        </mxCell>
        <mxCell id="U3ejUCYZ4DHuvYuuj-Lv-13" value="- &lt;u&gt;Panel: ProgPanel&lt;br&gt;&lt;/u&gt;" style="text;html=1;strokeColor=none;fillColor=none;align=left;verticalAlign=middle;spacingLeft=4;spacingRight=4;overflow=hidden;rotatable=0;points=[[0,0.5],[1,0.5]];portConstraint=eastwest;fontColor=default;labelBackgroundColor=default;" parent="U3ejUCYZ4DHuvYuuj-Lv-12" vertex="1">
          <mxGeometry y="30" width="248" height="20" as="geometry" />
        </mxCell>
        <mxCell id="U3ejUCYZ4DHuvYuuj-Lv-14" value="- ActionListenerCommand: saveCommand" style="text;html=1;strokeColor=none;fillColor=none;align=left;verticalAlign=middle;spacingLeft=4;spacingRight=4;overflow=hidden;rotatable=0;points=[[0,0.5],[1,0.5]];portConstraint=eastwest;fontColor=default;labelBackgroundColor=default;" parent="U3ejUCYZ4DHuvYuuj-Lv-12" vertex="1">
          <mxGeometry y="50" width="248" height="20" as="geometry" />
        </mxCell>
        <mxCell id="YJhYwYxTLhJLAMdy0_Dd-5" value="- MenuOptions: Menu" style="text;html=1;strokeColor=none;fillColor=none;align=left;verticalAlign=middle;spacingLeft=4;spacingRight=4;overflow=hidden;rotatable=0;points=[[0,0.5],[1,0.5]];portConstraint=eastwest;fontColor=default;labelBackgroundColor=default;" parent="U3ejUCYZ4DHuvYuuj-Lv-12" vertex="1">
          <mxGeometry y="70" width="248" height="20" as="geometry" />
        </mxCell>
        <mxCell id="U3ejUCYZ4DHuvYuuj-Lv-15" value="" style="line;strokeWidth=1;fillColor=none;align=left;verticalAlign=middle;spacingTop=-1;spacingLeft=3;spacingRight=3;rotatable=0;labelPosition=right;points=[];portConstraint=eastwest;strokeColor=default;labelBackgroundColor=default;fontColor=default;" parent="U3ejUCYZ4DHuvYuuj-Lv-12" vertex="1">
          <mxGeometry y="90" width="248" height="8" as="geometry" />
        </mxCell>
        <mxCell id="U3ejUCYZ4DHuvYuuj-Lv-16" value="&amp;lt;&amp;lt;Constructor&amp;gt;&amp;gt;&lt;br&gt;+ ProgFrame()" style="text;html=1;strokeColor=none;fillColor=none;align=left;verticalAlign=middle;spacingLeft=4;spacingRight=4;overflow=hidden;rotatable=0;points=[[0,0.5],[1,0.5]];portConstraint=eastwest;fontColor=default;labelBackgroundColor=default;" parent="U3ejUCYZ4DHuvYuuj-Lv-12" vertex="1">
          <mxGeometry y="98" width="248" height="32" as="geometry" />
        </mxCell>
        <mxCell id="U3ejUCYZ4DHuvYuuj-Lv-29" style="edgeStyle=orthogonalEdgeStyle;rounded=0;orthogonalLoop=1;jettySize=auto;html=1;entryX=0.5;entryY=1;entryDx=0;entryDy=0;labelBackgroundColor=default;fontColor=default;endArrow=block;endFill=0;strokeColor=default;dashed=1;strokeWidth=2;exitX=0.5;exitY=0;exitDx=0;exitDy=0;" parent="1" source="YJhYwYxTLhJLAMdy0_Dd-41" target="U3ejUCYZ4DHuvYuuj-Lv-47" edge="1">
          <mxGeometry relative="1" as="geometry">
            <mxPoint x="588" y="548" as="sourcePoint" />
          </mxGeometry>
        </mxCell>
        <mxCell id="U3ejUCYZ4DHuvYuuj-Lv-45" value="JMenuBar" style="swimlane;fontStyle=0;align=center;verticalAlign=top;childLayout=stackLayout;horizontal=1;startSize=30;horizontalStack=0;resizeParent=1;resizeParentMax=0;resizeLast=0;collapsible=0;marginBottom=0;html=1;fillColor=default;strokeColor=default;fontColor=default;labelBackgroundColor=default;" parent="1" vertex="1">
          <mxGeometry x="67.5" y="590" width="140" height="38" as="geometry" />
        </mxCell>
        <mxCell id="YJhYwYxTLhJLAMdy0_Dd-6" value="ProgPanel" style="swimlane;fontStyle=0;align=center;verticalAlign=top;childLayout=stackLayout;horizontal=1;startSize=30;horizontalStack=0;resizeParent=1;resizeParentMax=0;resizeLast=0;collapsible=0;marginBottom=0;html=1;fillColor=default;strokeColor=default;fontColor=default;labelBackgroundColor=default;" parent="1" vertex="1">
          <mxGeometry x="-310" y="426.5" width="277" height="258" as="geometry" />
        </mxCell>
        <mxCell id="YJhYwYxTLhJLAMdy0_Dd-7" value="- CentimetersConversionArea: cmConvArea" style="text;html=1;strokeColor=none;fillColor=none;align=left;verticalAlign=middle;spacingLeft=4;spacingRight=4;overflow=hidden;rotatable=0;points=[[0,0.5],[1,0.5]];portConstraint=eastwest;fontColor=default;labelBackgroundColor=default;" parent="YJhYwYxTLhJLAMdy0_Dd-6" vertex="1">
          <mxGeometry y="30" width="277" height="20" as="geometry" />
        </mxCell>
        <mxCell id="YJhYwYxTLhJLAMdy0_Dd-8" value="- FeetConversionArea: feetConvArea" style="text;html=1;strokeColor=none;fillColor=none;align=left;verticalAlign=middle;spacingLeft=4;spacingRight=4;overflow=hidden;rotatable=0;points=[[0,0.5],[1,0.5]];portConstraint=eastwest;fontColor=default;labelBackgroundColor=default;" parent="YJhYwYxTLhJLAMdy0_Dd-6" vertex="1">
          <mxGeometry y="50" width="277" height="20" as="geometry" />
        </mxCell>
        <mxCell id="YJhYwYxTLhJLAMdy0_Dd-9" value="- MeterConversionsArea:&amp;nbsp; meterConvArea" style="text;html=1;strokeColor=none;fillColor=none;align=left;verticalAlign=middle;spacingLeft=4;spacingRight=4;overflow=hidden;rotatable=0;points=[[0,0.5],[1,0.5]];portConstraint=eastwest;fontColor=default;labelBackgroundColor=default;" parent="YJhYwYxTLhJLAMdy0_Dd-6" vertex="1">
          <mxGeometry y="70" width="277" height="20" as="geometry" />
        </mxCell>
        <mxCell id="YJhYwYxTLhJLAMdy0_Dd-10" value="" style="line;strokeWidth=1;fillColor=none;align=left;verticalAlign=middle;spacingTop=-1;spacingLeft=3;spacingRight=3;rotatable=0;labelPosition=right;points=[];portConstraint=eastwest;strokeColor=default;labelBackgroundColor=default;fontColor=default;" parent="YJhYwYxTLhJLAMdy0_Dd-6" vertex="1">
          <mxGeometry y="90" width="277" height="8" as="geometry" />
        </mxCell>
        <mxCell id="YJhYwYxTLhJLAMdy0_Dd-11" value="&amp;lt;&amp;lt;Constructor&amp;gt;&amp;gt;&lt;br&gt;+ ProgFrame()" style="text;html=1;strokeColor=none;fillColor=none;align=left;verticalAlign=middle;spacingLeft=4;spacingRight=4;overflow=hidden;rotatable=0;points=[[0,0.5],[1,0.5]];portConstraint=eastwest;fontColor=default;labelBackgroundColor=default;" parent="YJhYwYxTLhJLAMdy0_Dd-6" vertex="1">
          <mxGeometry y="98" width="277" height="32" as="geometry" />
        </mxCell>
        <mxCell id="YJhYwYxTLhJLAMdy0_Dd-21" value="+ paintComponents(g:&amp;nbsp; Graphics): void" style="text;html=1;strokeColor=none;fillColor=none;align=left;verticalAlign=middle;spacingLeft=4;spacingRight=4;overflow=hidden;rotatable=0;points=[[0,0.5],[1,0.5]];portConstraint=eastwest;fontColor=default;labelBackgroundColor=default;" parent="YJhYwYxTLhJLAMdy0_Dd-6" vertex="1">
          <mxGeometry y="130" width="277" height="32" as="geometry" />
        </mxCell>
        <mxCell id="YJhYwYxTLhJLAMdy0_Dd-22" value="+ getCMConvArea(): CentimetersConversionArea" style="text;html=1;strokeColor=none;fillColor=none;align=left;verticalAlign=middle;spacingLeft=4;spacingRight=4;overflow=hidden;rotatable=0;points=[[0,0.5],[1,0.5]];portConstraint=eastwest;fontColor=default;labelBackgroundColor=default;" parent="YJhYwYxTLhJLAMdy0_Dd-6" vertex="1">
          <mxGeometry y="162" width="277" height="32" as="geometry" />
        </mxCell>
        <mxCell id="YJhYwYxTLhJLAMdy0_Dd-23" value="+ getFeetConvArea(): FeetConversionArea" style="text;html=1;strokeColor=none;fillColor=none;align=left;verticalAlign=middle;spacingLeft=4;spacingRight=4;overflow=hidden;rotatable=0;points=[[0,0.5],[1,0.5]];portConstraint=eastwest;fontColor=default;labelBackgroundColor=default;" parent="YJhYwYxTLhJLAMdy0_Dd-6" vertex="1">
          <mxGeometry y="194" width="277" height="32" as="geometry" />
        </mxCell>
        <mxCell id="YJhYwYxTLhJLAMdy0_Dd-24" value="+ getMeterConvArea(): MeterConversionArea" style="text;html=1;strokeColor=none;fillColor=none;align=left;verticalAlign=middle;spacingLeft=4;spacingRight=4;overflow=hidden;rotatable=0;points=[[0,0.5],[1,0.5]];portConstraint=eastwest;fontColor=default;labelBackgroundColor=default;" parent="YJhYwYxTLhJLAMdy0_Dd-6" vertex="1">
          <mxGeometry y="226" width="277" height="32" as="geometry" />
        </mxCell>
        <mxCell id="YJhYwYxTLhJLAMdy0_Dd-20" style="edgeStyle=orthogonalEdgeStyle;rounded=0;orthogonalLoop=1;jettySize=auto;html=1;labelBackgroundColor=default;fontColor=default;endArrow=block;endFill=0;strokeColor=default;strokeWidth=2;exitX=0.5;exitY=0;exitDx=0;exitDy=0;entryX=0.5;entryY=1;entryDx=0;entryDy=0;" parent="1" source="YJhYwYxTLhJLAMdy0_Dd-6" target="19sE1abQ0TIRROIsZksC-37" edge="1">
          <mxGeometry relative="1" as="geometry">
            <mxPoint x="-34" y="446.5" as="sourcePoint" />
            <mxPoint x="-171.5" y="400" as="targetPoint" />
          </mxGeometry>
        </mxCell>
        <mxCell id="YJhYwYxTLhJLAMdy0_Dd-28" value="MenuOptions" style="swimlane;fontStyle=0;align=center;verticalAlign=top;childLayout=stackLayout;horizontal=1;startSize=30;horizontalStack=0;resizeParent=1;resizeParentMax=0;resizeLast=0;collapsible=0;marginBottom=0;html=1;fillColor=default;strokeColor=default;fontColor=default;labelBackgroundColor=default;" parent="1" vertex="1">
          <mxGeometry x="-1" y="674" width="277" height="122" as="geometry" />
        </mxCell>
        <mxCell id="YJhYwYxTLhJLAMdy0_Dd-29" value="- ActionListenerCommand: saveCommand" style="text;html=1;strokeColor=none;fillColor=none;align=left;verticalAlign=middle;spacingLeft=4;spacingRight=4;overflow=hidden;rotatable=0;points=[[0,0.5],[1,0.5]];portConstraint=eastwest;fontColor=default;labelBackgroundColor=default;" parent="YJhYwYxTLhJLAMdy0_Dd-28" vertex="1">
          <mxGeometry y="30" width="277" height="20" as="geometry" />
        </mxCell>
        <mxCell id="YJhYwYxTLhJLAMdy0_Dd-32" value="" style="line;strokeWidth=1;fillColor=none;align=left;verticalAlign=middle;spacingTop=-1;spacingLeft=3;spacingRight=3;rotatable=0;labelPosition=right;points=[];portConstraint=eastwest;strokeColor=default;labelBackgroundColor=default;fontColor=default;" parent="YJhYwYxTLhJLAMdy0_Dd-28" vertex="1">
          <mxGeometry y="50" width="277" height="8" as="geometry" />
        </mxCell>
        <mxCell id="YJhYwYxTLhJLAMdy0_Dd-33" value="&amp;lt;&amp;lt;Constructor&amp;gt;&amp;gt;&lt;br&gt;&lt;div align=&quot;left&quot;&gt;+ MenuOptions(action: ActionListenerCommand)&lt;/div&gt;" style="text;html=1;strokeColor=none;fillColor=none;align=left;verticalAlign=middle;spacingLeft=4;spacingRight=4;overflow=hidden;rotatable=0;points=[[0,0.5],[1,0.5]];portConstraint=eastwest;fontColor=default;labelBackgroundColor=default;" parent="YJhYwYxTLhJLAMdy0_Dd-28" vertex="1">
          <mxGeometry y="58" width="277" height="32" as="geometry" />
        </mxCell>
        <mxCell id="YJhYwYxTLhJLAMdy0_Dd-34" value="+ clickSave: void" style="text;html=1;strokeColor=none;fillColor=none;align=left;verticalAlign=middle;spacingLeft=4;spacingRight=4;overflow=hidden;rotatable=0;points=[[0,0.5],[1,0.5]];portConstraint=eastwest;fontColor=default;labelBackgroundColor=default;" parent="YJhYwYxTLhJLAMdy0_Dd-28" vertex="1">
          <mxGeometry y="90" width="277" height="32" as="geometry" />
        </mxCell>
        <mxCell id="YJhYwYxTLhJLAMdy0_Dd-41" value="ActionSave" style="swimlane;fontStyle=0;align=center;verticalAlign=top;childLayout=stackLayout;horizontal=1;startSize=30;horizontalStack=0;resizeParent=1;resizeParentMax=0;resizeLast=0;collapsible=0;marginBottom=0;html=1;fillColor=default;strokeColor=default;fontColor=default;labelBackgroundColor=default;" parent="1" vertex="1">
          <mxGeometry x="449.38" y="564" width="277" height="142" as="geometry" />
        </mxCell>
        <mxCell id="YJhYwYxTLhJLAMdy0_Dd-42" value="- panel: ProgPanel" style="text;html=1;strokeColor=none;fillColor=none;align=left;verticalAlign=middle;spacingLeft=4;spacingRight=4;overflow=hidden;rotatable=0;points=[[0,0.5],[1,0.5]];portConstraint=eastwest;fontColor=default;labelBackgroundColor=default;" parent="YJhYwYxTLhJLAMdy0_Dd-41" vertex="1">
          <mxGeometry y="30" width="277" height="20" as="geometry" />
        </mxCell>
        <mxCell id="YJhYwYxTLhJLAMdy0_Dd-43" value="- model: ValueToConvert" style="text;html=1;strokeColor=none;fillColor=none;align=left;verticalAlign=middle;spacingLeft=4;spacingRight=4;overflow=hidden;rotatable=0;points=[[0,0.5],[1,0.5]];portConstraint=eastwest;fontColor=default;labelBackgroundColor=default;" parent="YJhYwYxTLhJLAMdy0_Dd-41" vertex="1">
          <mxGeometry y="50" width="277" height="20" as="geometry" />
        </mxCell>
        <mxCell id="YJhYwYxTLhJLAMdy0_Dd-45" value="" style="line;strokeWidth=1;fillColor=none;align=left;verticalAlign=middle;spacingTop=-1;spacingLeft=3;spacingRight=3;rotatable=0;labelPosition=right;points=[];portConstraint=eastwest;strokeColor=default;labelBackgroundColor=default;fontColor=default;" parent="YJhYwYxTLhJLAMdy0_Dd-41" vertex="1">
          <mxGeometry y="70" width="277" height="8" as="geometry" />
        </mxCell>
        <mxCell id="YJhYwYxTLhJLAMdy0_Dd-46" value="&amp;lt;&amp;lt;Constructor&amp;gt;&amp;gt;&lt;br&gt;+ ActionSave(pan:&amp;nbsp; ProgPanel)" style="text;html=1;strokeColor=none;fillColor=none;align=left;verticalAlign=middle;spacingLeft=4;spacingRight=4;overflow=hidden;rotatable=0;points=[[0,0.5],[1,0.5]];portConstraint=eastwest;fontColor=default;labelBackgroundColor=default;" parent="YJhYwYxTLhJLAMdy0_Dd-41" vertex="1">
          <mxGeometry y="78" width="277" height="32" as="geometry" />
        </mxCell>
        <mxCell id="YJhYwYxTLhJLAMdy0_Dd-50" value="+ execute(): void" style="text;html=1;strokeColor=none;fillColor=none;align=left;verticalAlign=middle;spacingLeft=4;spacingRight=4;overflow=hidden;rotatable=0;points=[[0,0.5],[1,0.5]];portConstraint=eastwest;fontColor=default;labelBackgroundColor=default;" parent="YJhYwYxTLhJLAMdy0_Dd-41" vertex="1">
          <mxGeometry y="110" width="277" height="32" as="geometry" />
        </mxCell>
        <mxCell id="19sE1abQ0TIRROIsZksC-35" value="JFrame" style="swimlane;fontStyle=0;align=center;verticalAlign=top;childLayout=stackLayout;horizontal=1;startSize=30;horizontalStack=0;resizeParent=1;resizeParentMax=0;resizeLast=0;collapsible=0;marginBottom=0;html=1;fillColor=default;strokeColor=default;fontColor=default;" vertex="1" parent="1">
          <mxGeometry x="66" y="362" width="150" height="28" as="geometry" />
        </mxCell>
        <mxCell id="19sE1abQ0TIRROIsZksC-37" value="JFrame" style="swimlane;fontStyle=0;align=center;verticalAlign=top;childLayout=stackLayout;horizontal=1;startSize=30;horizontalStack=0;resizeParent=1;resizeParentMax=0;resizeLast=0;collapsible=0;marginBottom=0;html=1;fillColor=default;strokeColor=default;fontColor=default;" vertex="1" parent="1">
          <mxGeometry x="-246.5" y="362" width="150" height="27" as="geometry" />
        </mxCell>
        <mxCell id="19sE1abQ0TIRROIsZksC-68" style="edgeStyle=orthogonalEdgeStyle;rounded=0;orthogonalLoop=1;jettySize=auto;html=1;exitX=0;exitY=0;exitDx=0;exitDy=347.5;exitPerimeter=0;entryX=0.5;entryY=1;entryDx=0;entryDy=0;entryPerimeter=0;fontFamily=Times New Roman;startArrow=none;startFill=0;endArrow=none;endFill=0;strokeWidth=2;" edge="1" parent="1" source="19sE1abQ0TIRROIsZksC-42" target="U3ejUCYZ4DHuvYuuj-Lv-3">
          <mxGeometry relative="1" as="geometry" />
        </mxCell>
        <mxCell id="19sE1abQ0TIRROIsZksC-75" value="" style="group" vertex="1" connectable="0" parent="1">
          <mxGeometry x="-106" y="197" width="205" height="112" as="geometry" />
        </mxCell>
        <mxCell id="19sE1abQ0TIRROIsZksC-74" value="" style="group" vertex="1" connectable="0" parent="19sE1abQ0TIRROIsZksC-75">
          <mxGeometry width="205" height="112" as="geometry" />
        </mxCell>
        <mxCell id="U3ejUCYZ4DHuvYuuj-Lv-1" value="" style="shape=folder;fontStyle=1;tabWidth=80;tabHeight=30;tabPosition=left;html=1;boundedLbl=1;labelBackgroundColor=default;fontColor=default;strokeColor=default;fillColor=default;" parent="19sE1abQ0TIRROIsZksC-74" vertex="1">
          <mxGeometry width="205" height="112" as="geometry" />
        </mxCell>
        <mxCell id="U3ejUCYZ4DHuvYuuj-Lv-43" value="ConvertreApp" style="swimlane;fontStyle=0;align=center;verticalAlign=top;childLayout=stackLayout;horizontal=1;startSize=30;horizontalStack=0;resizeParent=1;resizeParentMax=0;resizeLast=0;collapsible=0;marginBottom=0;html=1;fillColor=default;strokeColor=default;fontColor=default;labelBackgroundColor=default;" parent="19sE1abQ0TIRROIsZksC-74" vertex="1">
          <mxGeometry x="27.5" y="46" width="150" height="50" as="geometry" />
        </mxCell>
        <mxCell id="U3ejUCYZ4DHuvYuuj-Lv-44" value="&lt;u&gt;+main(args:&amp;nbsp; String[]): void&lt;/u&gt;" style="text;html=1;strokeColor=default;fillColor=default;align=left;verticalAlign=middle;spacingLeft=4;spacingRight=4;overflow=hidden;rotatable=0;points=[[0,0.5],[1,0.5]];portConstraint=eastwest;fontColor=default;labelBackgroundColor=default;" parent="U3ejUCYZ4DHuvYuuj-Lv-43" vertex="1">
          <mxGeometry y="30" width="150" height="20" as="geometry" />
        </mxCell>
        <mxCell id="U3ejUCYZ4DHuvYuuj-Lv-175" value="Main" style="text;html=1;align=center;verticalAlign=middle;resizable=0;points=[];autosize=1;strokeColor=none;fillColor=none;fontColor=default;" parent="19sE1abQ0TIRROIsZksC-75" vertex="1">
          <mxGeometry x="23" y="7" width="36" height="18" as="geometry" />
        </mxCell>
        <mxCell id="19sE1abQ0TIRROIsZksC-22" style="edgeStyle=orthogonalEdgeStyle;rounded=0;orthogonalLoop=1;jettySize=auto;html=1;dashed=1;endArrow=blockThin;endFill=0;strokeWidth=2;exitX=0;exitY=0.5;exitDx=0;exitDy=0;entryX=0.51;entryY=1.003;entryDx=0;entryDy=0;entryPerimeter=0;" edge="1" parent="1" source="19sE1abQ0TIRROIsZksC-10" target="YJhYwYxTLhJLAMdy0_Dd-52">
          <mxGeometry relative="1" as="geometry">
            <mxPoint x="173" y="966" as="targetPoint" />
            <Array as="points" />
          </mxGeometry>
        </mxCell>
        <mxCell id="19sE1abQ0TIRROIsZksC-7" value="FeetConversionArea" style="swimlane;fontStyle=0;align=center;verticalAlign=top;childLayout=stackLayout;horizontal=1;startSize=30;horizontalStack=0;resizeParent=1;resizeParentMax=0;resizeLast=0;collapsible=0;marginBottom=0;html=1;fillColor=default;strokeColor=default;fontColor=default;" vertex="1" parent="1">
          <mxGeometry x="225" y="1349" width="381" height="130" as="geometry" />
        </mxCell>
        <mxCell id="19sE1abQ0TIRROIsZksC-8" value="- subject:&amp;nbsp; ConcreteSubject" style="text;html=1;strokeColor=none;fillColor=none;align=left;verticalAlign=middle;spacingLeft=4;spacingRight=4;overflow=hidden;rotatable=0;points=[[0,0.5],[1,0.5]];portConstraint=eastwest;fontColor=default;" vertex="1" parent="19sE1abQ0TIRROIsZksC-7">
          <mxGeometry y="30" width="381" height="20" as="geometry" />
        </mxCell>
        <mxCell id="19sE1abQ0TIRROIsZksC-9" value="" style="line;strokeWidth=1;fillColor=none;align=left;verticalAlign=middle;spacingTop=-1;spacingLeft=3;spacingRight=3;rotatable=0;labelPosition=right;points=[];portConstraint=eastwest;" vertex="1" parent="19sE1abQ0TIRROIsZksC-7">
          <mxGeometry y="50" width="381" height="8" as="geometry" />
        </mxCell>
        <mxCell id="19sE1abQ0TIRROIsZksC-10" value="&amp;lt;&amp;lt;Constructor&amp;gt;&amp;gt;&lt;br&gt;+ FeetConversionArea(text: String, row:&amp;nbsp; Integer, col:&amp;nbsp; Integer)" style="text;html=1;strokeColor=none;fillColor=none;align=left;verticalAlign=middle;spacingLeft=4;spacingRight=4;overflow=hidden;rotatable=0;points=[[0,0.5],[1,0.5]];portConstraint=eastwest;fontColor=default;" vertex="1" parent="19sE1abQ0TIRROIsZksC-7">
          <mxGeometry y="58" width="381" height="32" as="geometry" />
        </mxCell>
        <mxCell id="19sE1abQ0TIRROIsZksC-11" value="+ setSubject:():&amp;nbsp; void" style="text;html=1;strokeColor=none;fillColor=none;align=left;verticalAlign=middle;spacingLeft=4;spacingRight=4;overflow=hidden;rotatable=0;points=[[0,0.5],[1,0.5]];portConstraint=eastwest;fontColor=default;" vertex="1" parent="19sE1abQ0TIRROIsZksC-7">
          <mxGeometry y="90" width="381" height="20" as="geometry" />
        </mxCell>
        <mxCell id="19sE1abQ0TIRROIsZksC-114" value="+ update():&amp;nbsp; void" style="text;html=1;strokeColor=none;fillColor=none;align=left;verticalAlign=middle;spacingLeft=4;spacingRight=4;overflow=hidden;rotatable=0;points=[[0,0.5],[1,0.5]];portConstraint=eastwest;fontColor=default;" vertex="1" parent="19sE1abQ0TIRROIsZksC-7">
          <mxGeometry y="110" width="381" height="20" as="geometry" />
        </mxCell>
        <mxCell id="19sE1abQ0TIRROIsZksC-31" style="edgeStyle=orthogonalEdgeStyle;rounded=0;orthogonalLoop=1;jettySize=auto;html=1;exitX=1.003;exitY=0.625;exitDx=0;exitDy=0;entryX=0.5;entryY=1;entryDx=0;entryDy=0;endArrow=blockThin;endFill=0;strokeWidth=2;exitPerimeter=0;" edge="1" parent="1" source="19sE1abQ0TIRROIsZksC-10" target="19sE1abQ0TIRROIsZksC-29">
          <mxGeometry relative="1" as="geometry" />
        </mxCell>
        <mxCell id="19sE1abQ0TIRROIsZksC-33" value="" style="group" vertex="1" connectable="0" parent="1">
          <mxGeometry x="216" y="996" width="388" height="188" as="geometry" />
        </mxCell>
        <mxCell id="YJhYwYxTLhJLAMdy0_Dd-59" value="CenterMeterConversionArea" style="swimlane;fontStyle=0;align=center;verticalAlign=top;childLayout=stackLayout;horizontal=1;startSize=30;horizontalStack=0;resizeParent=1;resizeParentMax=0;resizeLast=0;collapsible=0;marginBottom=0;html=1;fillColor=default;strokeColor=default;fontColor=default;" parent="19sE1abQ0TIRROIsZksC-33" vertex="1">
          <mxGeometry x="8.356923076923076" width="379.6430769230769" height="174.61538461538464" as="geometry" />
        </mxCell>
        <mxCell id="YJhYwYxTLhJLAMdy0_Dd-60" value="- subject:&amp;nbsp; ConcreteSubject" style="text;html=1;strokeColor=none;fillColor=none;align=left;verticalAlign=middle;spacingLeft=4;spacingRight=4;overflow=hidden;rotatable=0;points=[[0,0.5],[1,0.5]];portConstraint=eastwest;fontColor=default;" parent="YJhYwYxTLhJLAMdy0_Dd-59" vertex="1">
          <mxGeometry y="30" width="379.6430769230769" height="28.923076923076923" as="geometry" />
        </mxCell>
        <mxCell id="YJhYwYxTLhJLAMdy0_Dd-61" value="" style="line;strokeWidth=1;fillColor=none;align=left;verticalAlign=middle;spacingTop=-1;spacingLeft=3;spacingRight=3;rotatable=0;labelPosition=right;points=[];portConstraint=eastwest;" parent="YJhYwYxTLhJLAMdy0_Dd-59" vertex="1">
          <mxGeometry y="58.92307692307692" width="379.6430769230769" height="11.569230769230769" as="geometry" />
        </mxCell>
        <mxCell id="YJhYwYxTLhJLAMdy0_Dd-62" value="&amp;lt;&amp;lt;Constructor&amp;gt;&amp;gt;&lt;br&gt;+CentimeterConversionArea(text: String, row:&amp;nbsp; Integer, col:&amp;nbsp; Integer)" style="text;html=1;strokeColor=none;fillColor=none;align=left;verticalAlign=middle;spacingLeft=4;spacingRight=4;overflow=hidden;rotatable=0;points=[[0,0.5],[1,0.5]];portConstraint=eastwest;fontColor=default;" parent="YJhYwYxTLhJLAMdy0_Dd-59" vertex="1">
          <mxGeometry y="70.49230769230769" width="379.6430769230769" height="46.276923076923076" as="geometry" />
        </mxCell>
        <mxCell id="YJhYwYxTLhJLAMdy0_Dd-63" value="+ setSubject:():&amp;nbsp; void" style="text;html=1;strokeColor=none;fillColor=none;align=left;verticalAlign=middle;spacingLeft=4;spacingRight=4;overflow=hidden;rotatable=0;points=[[0,0.5],[1,0.5]];portConstraint=eastwest;fontColor=default;" parent="YJhYwYxTLhJLAMdy0_Dd-59" vertex="1">
          <mxGeometry y="116.76923076923077" width="379.6430769230769" height="28.923076923076923" as="geometry" />
        </mxCell>
        <mxCell id="YJhYwYxTLhJLAMdy0_Dd-64" value="+ update():&amp;nbsp; void" style="text;html=1;strokeColor=none;fillColor=none;align=left;verticalAlign=middle;spacingLeft=4;spacingRight=4;overflow=hidden;rotatable=0;points=[[0,0.5],[1,0.5]];portConstraint=eastwest;fontColor=default;" parent="YJhYwYxTLhJLAMdy0_Dd-59" vertex="1">
          <mxGeometry y="145.6923076923077" width="379.6430769230769" height="28.923076923076923" as="geometry" />
        </mxCell>
        <mxCell id="19sE1abQ0TIRROIsZksC-39" style="edgeStyle=orthogonalEdgeStyle;rounded=0;orthogonalLoop=1;jettySize=auto;html=1;endArrow=none;endFill=0;strokeWidth=2;entryX=1.001;entryY=0.677;entryDx=0;entryDy=0;entryPerimeter=0;" edge="1" parent="YJhYwYxTLhJLAMdy0_Dd-59" target="YJhYwYxTLhJLAMdy0_Dd-62">
          <mxGeometry relative="1" as="geometry">
            <mxPoint x="382.64307692307693" y="102" as="targetPoint" />
            <mxPoint x="405.64307692307693" y="102" as="sourcePoint" />
            <Array as="points">
              <mxPoint x="393" y="102" />
            </Array>
          </mxGeometry>
        </mxCell>
        <mxCell id="19sE1abQ0TIRROIsZksC-21" style="edgeStyle=orthogonalEdgeStyle;rounded=0;orthogonalLoop=1;jettySize=auto;html=1;exitX=0;exitY=0.5;exitDx=0;exitDy=0;dashed=1;endArrow=none;endFill=0;strokeWidth=2;" edge="1" parent="19sE1abQ0TIRROIsZksC-33" source="YJhYwYxTLhJLAMdy0_Dd-62">
          <mxGeometry relative="1" as="geometry">
            <mxPoint x="-19" y="94" as="targetPoint" />
            <Array as="points">
              <mxPoint y="94" />
              <mxPoint x="-44" y="94" />
            </Array>
          </mxGeometry>
        </mxCell>
        <mxCell id="19sE1abQ0TIRROIsZksC-34" value="" style="group" vertex="1" connectable="0" parent="1">
          <mxGeometry x="225" y="1190" width="380" height="130" as="geometry" />
        </mxCell>
        <mxCell id="19sE1abQ0TIRROIsZksC-1" value="MeterConversionArea" style="swimlane;fontStyle=0;align=center;verticalAlign=top;childLayout=stackLayout;horizontal=1;startSize=30;horizontalStack=0;resizeParent=1;resizeParentMax=0;resizeLast=0;collapsible=0;marginBottom=0;html=1;fillColor=default;strokeColor=default;fontColor=default;" vertex="1" parent="19sE1abQ0TIRROIsZksC-34">
          <mxGeometry width="380" height="130" as="geometry" />
        </mxCell>
        <mxCell id="19sE1abQ0TIRROIsZksC-2" value="- subject:&amp;nbsp; ConcreteSubject" style="text;html=1;strokeColor=none;fillColor=none;align=left;verticalAlign=middle;spacingLeft=4;spacingRight=4;overflow=hidden;rotatable=0;points=[[0,0.5],[1,0.5]];portConstraint=eastwest;fontColor=default;" vertex="1" parent="19sE1abQ0TIRROIsZksC-1">
          <mxGeometry y="30" width="380" height="20" as="geometry" />
        </mxCell>
        <mxCell id="19sE1abQ0TIRROIsZksC-3" value="" style="line;strokeWidth=1;fillColor=none;align=left;verticalAlign=middle;spacingTop=-1;spacingLeft=3;spacingRight=3;rotatable=0;labelPosition=right;points=[];portConstraint=eastwest;" vertex="1" parent="19sE1abQ0TIRROIsZksC-1">
          <mxGeometry y="50" width="380" height="8" as="geometry" />
        </mxCell>
        <mxCell id="19sE1abQ0TIRROIsZksC-4" value="&amp;lt;&amp;lt;Constructor&amp;gt;&amp;gt;&lt;br&gt;+ MeterConversionArea(text: String, row:&amp;nbsp; Integer, col:&amp;nbsp; Integer)" style="text;html=1;strokeColor=none;fillColor=none;align=left;verticalAlign=middle;spacingLeft=4;spacingRight=4;overflow=hidden;rotatable=0;points=[[0,0.5],[1,0.5]];portConstraint=eastwest;fontColor=default;" vertex="1" parent="19sE1abQ0TIRROIsZksC-1">
          <mxGeometry y="58" width="380" height="32" as="geometry" />
        </mxCell>
        <mxCell id="19sE1abQ0TIRROIsZksC-5" value="+ setSubject:():&amp;nbsp; void" style="text;html=1;strokeColor=none;fillColor=none;align=left;verticalAlign=middle;spacingLeft=4;spacingRight=4;overflow=hidden;rotatable=0;points=[[0,0.5],[1,0.5]];portConstraint=eastwest;fontColor=default;" vertex="1" parent="19sE1abQ0TIRROIsZksC-1">
          <mxGeometry y="90" width="380" height="20" as="geometry" />
        </mxCell>
        <mxCell id="19sE1abQ0TIRROIsZksC-6" value="+ update():&amp;nbsp; void" style="text;html=1;strokeColor=none;fillColor=none;align=left;verticalAlign=middle;spacingLeft=4;spacingRight=4;overflow=hidden;rotatable=0;points=[[0,0.5],[1,0.5]];portConstraint=eastwest;fontColor=default;" vertex="1" parent="19sE1abQ0TIRROIsZksC-1">
          <mxGeometry y="110" width="380" height="20" as="geometry" />
        </mxCell>
        <mxCell id="19sE1abQ0TIRROIsZksC-32" style="edgeStyle=orthogonalEdgeStyle;rounded=0;orthogonalLoop=1;jettySize=auto;html=1;dashed=1;endArrow=none;endFill=0;strokeWidth=2;exitX=0;exitY=0.626;exitDx=0;exitDy=0;exitPerimeter=0;" edge="1" parent="19sE1abQ0TIRROIsZksC-34" source="19sE1abQ0TIRROIsZksC-4">
          <mxGeometry relative="1" as="geometry">
            <mxPoint x="-28" y="78" as="targetPoint" />
            <mxPoint x="8.184615384615386" y="78" as="sourcePoint" />
            <Array as="points">
              <mxPoint y="78" />
            </Array>
          </mxGeometry>
        </mxCell>
        <mxCell id="19sE1abQ0TIRROIsZksC-38" style="edgeStyle=orthogonalEdgeStyle;rounded=0;orthogonalLoop=1;jettySize=auto;html=1;endArrow=none;endFill=0;strokeWidth=2;entryX=1;entryY=0.5;entryDx=0;entryDy=0;" edge="1" parent="1" target="19sE1abQ0TIRROIsZksC-4">
          <mxGeometry relative="1" as="geometry">
            <mxPoint x="569" y="1254.71" as="targetPoint" />
            <mxPoint x="632" y="1264" as="sourcePoint" />
            <Array as="points" />
          </mxGeometry>
        </mxCell>
        <mxCell id="19sE1abQ0TIRROIsZksC-67" style="edgeStyle=none;rounded=0;orthogonalLoop=1;jettySize=auto;html=1;fontFamily=Times New Roman;endArrow=classic;endFill=1;strokeWidth=2;entryX=0.502;entryY=0.996;entryDx=0;entryDy=0;entryPerimeter=0;" edge="1" parent="1" source="19sE1abQ0TIRROIsZksC-59" target="19sE1abQ0TIRROIsZksC-57">
          <mxGeometry x="81.5" y="855" as="geometry">
            <mxPoint x="847" y="1411.3568215892053" as="targetPoint" />
          </mxGeometry>
        </mxCell>
        <mxCell id="19sE1abQ0TIRROIsZksC-49" value="ControllerSubject" style="swimlane;fontStyle=0;align=center;verticalAlign=top;childLayout=stackLayout;horizontal=1;startSize=30;horizontalStack=0;resizeParent=1;resizeParentMax=0;resizeLast=0;collapsible=0;marginBottom=0;html=1;fillColor=default;strokeColor=default;fontColor=default;labelBackgroundColor=default;" vertex="1" parent="1">
          <mxGeometry x="927" y="1175.070059970015" width="205" height="231.84107946026984" as="geometry" />
        </mxCell>
        <mxCell id="19sE1abQ0TIRROIsZksC-50" value="- observers: List&amp;lt;Obeserver&amp;gt;" style="text;html=1;strokeColor=none;fillColor=none;align=left;verticalAlign=middle;spacingLeft=4;spacingRight=4;overflow=hidden;rotatable=0;points=[[0,0.5],[1,0.5]];portConstraint=eastwest;fontColor=default;labelBackgroundColor=default;" vertex="1" parent="19sE1abQ0TIRROIsZksC-49">
          <mxGeometry y="30" width="205" height="25.877061469265364" as="geometry" />
        </mxCell>
        <mxCell id="19sE1abQ0TIRROIsZksC-52" value="" style="line;strokeWidth=1;fillColor=none;align=left;verticalAlign=middle;spacingTop=-1;spacingLeft=3;spacingRight=3;rotatable=0;labelPosition=right;points=[];portConstraint=eastwest;strokeColor=default;labelBackgroundColor=default;fontColor=default;" vertex="1" parent="19sE1abQ0TIRROIsZksC-49">
          <mxGeometry y="55.877061469265364" width="205" height="10.350824587706146" as="geometry" />
        </mxCell>
        <mxCell id="19sE1abQ0TIRROIsZksC-53" value="+ addObserver(obs:&amp;nbsp; Observer)" style="text;html=1;strokeColor=none;fillColor=none;align=left;verticalAlign=middle;spacingLeft=4;spacingRight=4;overflow=hidden;rotatable=0;points=[[0,0.5],[1,0.5]];portConstraint=eastwest;fontColor=default;labelBackgroundColor=default;" vertex="1" parent="19sE1abQ0TIRROIsZksC-49">
          <mxGeometry y="66.22788605697151" width="205" height="41.403298350824585" as="geometry" />
        </mxCell>
        <mxCell id="19sE1abQ0TIRROIsZksC-54" value="+ removeObserver(obs:&amp;nbsp; Observer)" style="text;html=1;strokeColor=none;fillColor=none;align=left;verticalAlign=middle;spacingLeft=4;spacingRight=4;overflow=hidden;rotatable=0;points=[[0,0.5],[1,0.5]];portConstraint=eastwest;fontColor=default;labelBackgroundColor=default;" vertex="1" parent="19sE1abQ0TIRROIsZksC-49">
          <mxGeometry y="107.6311844077961" width="205" height="41.403298350824585" as="geometry" />
        </mxCell>
        <mxCell id="19sE1abQ0TIRROIsZksC-55" value="+ notifyObserver(obs:&amp;nbsp; Observer)" style="text;html=1;strokeColor=none;fillColor=none;align=left;verticalAlign=middle;spacingLeft=4;spacingRight=4;overflow=hidden;rotatable=0;points=[[0,0.5],[1,0.5]];portConstraint=eastwest;fontColor=default;labelBackgroundColor=default;" vertex="1" parent="19sE1abQ0TIRROIsZksC-49">
          <mxGeometry y="149.0344827586207" width="205" height="41.403298350824585" as="geometry" />
        </mxCell>
        <mxCell id="19sE1abQ0TIRROIsZksC-57" value="+ getInput():&amp;nbsp; double" style="text;html=1;strokeColor=none;fillColor=none;align=left;verticalAlign=middle;spacingLeft=4;spacingRight=4;overflow=hidden;rotatable=0;points=[[0,0.5],[1,0.5]];portConstraint=eastwest;fontColor=default;labelBackgroundColor=default;" vertex="1" parent="19sE1abQ0TIRROIsZksC-49">
          <mxGeometry y="190.43778110944527" width="205" height="41.403298350824585" as="geometry" />
        </mxCell>
        <mxCell id="YJhYwYxTLhJLAMdy0_Dd-58" value="" style="edgeStyle=orthogonalEdgeStyle;rounded=0;orthogonalLoop=1;jettySize=auto;html=1;dashed=1;labelBackgroundColor=default;fontColor=default;endArrow=blockThin;endFill=0;strokeColor=default;strokeWidth=2;entryX=0.5;entryY=1;entryDx=0;entryDy=0;" parent="1" target="U3ejUCYZ4DHuvYuuj-Lv-54" edge="1" source="19sE1abQ0TIRROIsZksC-49">
          <mxGeometry x="81.5" y="855" as="geometry">
            <mxPoint x="846.8199999999999" y="1294.9100449775112" as="sourcePoint" />
            <mxPoint x="847" y="1089.1874062968516" as="targetPoint" />
          </mxGeometry>
        </mxCell>
        <mxCell id="19sE1abQ0TIRROIsZksC-77" style="rounded=0;orthogonalLoop=1;jettySize=auto;html=1;exitX=0;exitY=0.5;exitDx=0;exitDy=0;fontFamily=Times New Roman;startArrow=none;startFill=0;endArrow=none;endFill=0;strokeWidth=2;entryX=0;entryY=0;entryDx=127.5;entryDy=12.5;entryPerimeter=0;dashed=1;" edge="1" parent="1" source="19sE1abQ0TIRROIsZksC-55" target="19sE1abQ0TIRROIsZksC-76">
          <mxGeometry relative="1" as="geometry" />
        </mxCell>
        <mxCell id="19sE1abQ0TIRROIsZksC-43" value="Model" style="text;html=1;align=center;verticalAlign=middle;resizable=0;points=[];autosize=1;strokeColor=none;fillColor=none;fontColor=default;" vertex="1" parent="1">
          <mxGeometry x="114" y="865.3508245877061" width="43" height="18" as="geometry" />
        </mxCell>
        <mxCell id="U3ejUCYZ4DHuvYuuj-Lv-52" value="&amp;lt;&amp;lt;Interface&amp;gt;&amp;gt;&lt;br&gt;Observer" style="swimlane;fontStyle=0;align=center;verticalAlign=top;childLayout=stackLayout;horizontal=1;startSize=40;horizontalStack=0;resizeParent=1;resizeParentMax=0;resizeLast=0;collapsible=0;marginBottom=0;html=1;fillColor=default;strokeColor=default;fontColor=default;labelBackgroundColor=default;" parent="1" vertex="1">
          <mxGeometry x="122" y="906.8588905547226" width="140" height="65.87706146926536" as="geometry" />
        </mxCell>
        <mxCell id="YJhYwYxTLhJLAMdy0_Dd-52" value="+ update() :void" style="text;html=1;strokeColor=none;fillColor=none;align=left;verticalAlign=middle;spacingLeft=4;spacingRight=4;overflow=hidden;rotatable=0;points=[[0,0.5],[1,0.5]];portConstraint=eastwest;fontColor=default;" parent="U3ejUCYZ4DHuvYuuj-Lv-52" vertex="1">
          <mxGeometry y="40" width="140" height="25.877061469265364" as="geometry" />
        </mxCell>
        <mxCell id="U3ejUCYZ4DHuvYuuj-Lv-54" value="&amp;lt;&amp;lt;Interface&amp;gt;&amp;gt;&lt;br&gt;Subject" style="swimlane;fontStyle=0;align=center;verticalAlign=top;childLayout=stackLayout;horizontal=1;startSize=38;horizontalStack=0;resizeParent=1;resizeParentMax=0;resizeLast=0;collapsible=0;marginBottom=0;html=1;fillColor=default;strokeColor=default;fontColor=default;labelBackgroundColor=default;" parent="1" vertex="1">
          <mxGeometry x="948.9999999999998" y="995.9965967016492" width="160.63" height="141.50824587706146" as="geometry" />
        </mxCell>
        <mxCell id="YJhYwYxTLhJLAMdy0_Dd-53" value="+ addObserver() :void" style="text;html=1;strokeColor=none;fillColor=none;align=left;verticalAlign=middle;spacingLeft=4;spacingRight=4;overflow=hidden;rotatable=0;points=[[0,0.5],[1,0.5]];portConstraint=eastwest;fontColor=default;" parent="U3ejUCYZ4DHuvYuuj-Lv-54" vertex="1">
          <mxGeometry y="38" width="160.63" height="25.877061469265364" as="geometry" />
        </mxCell>
        <mxCell id="YJhYwYxTLhJLAMdy0_Dd-54" value="+ removeObserver() :void" style="text;html=1;strokeColor=none;fillColor=none;align=left;verticalAlign=middle;spacingLeft=4;spacingRight=4;overflow=hidden;rotatable=0;points=[[0,0.5],[1,0.5]];portConstraint=eastwest;fontColor=default;" parent="U3ejUCYZ4DHuvYuuj-Lv-54" vertex="1">
          <mxGeometry y="63.877061469265364" width="160.63" height="25.877061469265364" as="geometry" />
        </mxCell>
        <mxCell id="YJhYwYxTLhJLAMdy0_Dd-55" value="+ notifyObserver() :void" style="text;html=1;strokeColor=none;fillColor=none;align=left;verticalAlign=middle;spacingLeft=4;spacingRight=4;overflow=hidden;rotatable=0;points=[[0,0.5],[1,0.5]];portConstraint=eastwest;fontColor=default;" parent="U3ejUCYZ4DHuvYuuj-Lv-54" vertex="1">
          <mxGeometry y="89.75412293853073" width="160.63" height="25.877061469265364" as="geometry" />
        </mxCell>
        <mxCell id="YJhYwYxTLhJLAMdy0_Dd-56" value="+ getInput() :double" style="text;html=1;strokeColor=none;fillColor=none;align=left;verticalAlign=middle;spacingLeft=4;spacingRight=4;overflow=hidden;rotatable=0;points=[[0,0.5],[1,0.5]];portConstraint=eastwest;fontColor=default;" parent="U3ejUCYZ4DHuvYuuj-Lv-54" vertex="1">
          <mxGeometry y="115.6311844077961" width="160.63" height="25.877061469265364" as="geometry" />
        </mxCell>
        <mxCell id="19sE1abQ0TIRROIsZksC-29" value="JTextArea" style="swimlane;fontStyle=0;align=center;verticalAlign=top;childLayout=stackLayout;horizontal=1;startSize=30;horizontalStack=0;resizeParent=1;resizeParentMax=0;resizeLast=0;collapsible=0;marginBottom=0;html=1;fillColor=default;strokeColor=default;fontColor=default;" vertex="1" parent="1">
          <mxGeometry x="556" y="906.8565967016492" width="150" height="34.934032983508246" as="geometry" />
        </mxCell>
        <mxCell id="19sE1abQ0TIRROIsZksC-59" value="ValueToConvert" style="swimlane;fontStyle=0;align=center;verticalAlign=top;childLayout=stackLayout;horizontal=1;startSize=30;horizontalStack=0;resizeParent=1;resizeParentMax=0;resizeLast=0;collapsible=0;marginBottom=0;html=1;fillColor=default;strokeColor=default;fontColor=default;labelBackgroundColor=default;" vertex="1" parent="1">
          <mxGeometry x="927" y="1451.19" width="205" height="216.31484257871062" as="geometry" />
        </mxCell>
        <mxCell id="19sE1abQ0TIRROIsZksC-60" value="- panel: ProgPanel" style="text;html=1;strokeColor=none;fillColor=none;align=left;verticalAlign=middle;spacingLeft=4;spacingRight=4;overflow=hidden;rotatable=0;points=[[0,0.5],[1,0.5]];portConstraint=eastwest;fontColor=default;labelBackgroundColor=default;" vertex="1" parent="19sE1abQ0TIRROIsZksC-59">
          <mxGeometry y="30" width="205" height="25.877061469265364" as="geometry" />
        </mxCell>
        <mxCell id="19sE1abQ0TIRROIsZksC-69" value="- savedInput: Double" style="text;html=1;strokeColor=none;fillColor=none;align=left;verticalAlign=middle;spacingLeft=4;spacingRight=4;overflow=hidden;rotatable=0;points=[[0,0.5],[1,0.5]];portConstraint=eastwest;fontColor=default;labelBackgroundColor=default;" vertex="1" parent="19sE1abQ0TIRROIsZksC-59">
          <mxGeometry y="55.877061469265364" width="205" height="25.877061469265364" as="geometry" />
        </mxCell>
        <mxCell id="19sE1abQ0TIRROIsZksC-61" value="" style="line;strokeWidth=1;fillColor=none;align=left;verticalAlign=middle;spacingTop=-1;spacingLeft=3;spacingRight=3;rotatable=0;labelPosition=right;points=[];portConstraint=eastwest;strokeColor=default;labelBackgroundColor=default;fontColor=default;" vertex="1" parent="19sE1abQ0TIRROIsZksC-59">
          <mxGeometry y="81.75412293853073" width="205" height="10.350824587706146" as="geometry" />
        </mxCell>
        <mxCell id="19sE1abQ0TIRROIsZksC-62" value="&amp;lt;&amp;lt;Constructor&amp;gt;&amp;gt;&lt;br&gt;+ ValueToConvert(pan:&amp;nbsp; ProgPanel)" style="text;html=1;strokeColor=none;fillColor=none;align=left;verticalAlign=middle;spacingLeft=4;spacingRight=4;overflow=hidden;rotatable=0;points=[[0,0.5],[1,0.5]];portConstraint=eastwest;fontColor=default;labelBackgroundColor=default;" vertex="1" parent="19sE1abQ0TIRROIsZksC-59">
          <mxGeometry y="92.10494752623687" width="205" height="41.403298350824585" as="geometry" />
        </mxCell>
        <mxCell id="19sE1abQ0TIRROIsZksC-63" value="+ getSavedInput():&amp;nbsp; Double" style="text;html=1;strokeColor=none;fillColor=none;align=left;verticalAlign=middle;spacingLeft=4;spacingRight=4;overflow=hidden;rotatable=0;points=[[0,0.5],[1,0.5]];portConstraint=eastwest;fontColor=default;labelBackgroundColor=default;" vertex="1" parent="19sE1abQ0TIRROIsZksC-59">
          <mxGeometry y="133.50824587706146" width="205" height="41.403298350824585" as="geometry" />
        </mxCell>
        <mxCell id="19sE1abQ0TIRROIsZksC-64" value="+ save(input:&amp;nbsp; String)" style="text;html=1;strokeColor=none;fillColor=none;align=left;verticalAlign=middle;spacingLeft=4;spacingRight=4;overflow=hidden;rotatable=0;points=[[0,0.5],[1,0.5]];portConstraint=eastwest;fontColor=default;labelBackgroundColor=default;" vertex="1" parent="19sE1abQ0TIRROIsZksC-59">
          <mxGeometry y="174.91154422788605" width="205" height="41.403298350824585" as="geometry" />
        </mxCell>
        <mxCell id="19sE1abQ0TIRROIsZksC-76" value="&lt;div&gt;for each obsin obervers&lt;/div&gt;&lt;div align=&quot;left&quot;&gt;&amp;nbsp; obs.update()&lt;br&gt;&lt;/div&gt;" style="shape=note2;boundedLbl=1;whiteSpace=wrap;html=1;size=25;verticalAlign=top;align=center;fontSize=12;" vertex="1" parent="1">
          <mxGeometry x="760" y="1189" width="140" height="90" as="geometry" />
        </mxCell>
        <mxCell id="19sE1abQ0TIRROIsZksC-117" value="" style="endArrow=none;html=1;rounded=0;fontFamily=Times New Roman;startSize=3;endSize=3;strokeWidth=1;entryX=0.109;entryY=1.016;entryDx=0;entryDy=0;entryPerimeter=0;horizontal=1;startArrow=classic;startFill=1;" edge="1" parent="1" target="U3ejUCYZ4DHuvYuuj-Lv-16">
          <mxGeometry width="50" height="50" relative="1" as="geometry">
            <mxPoint x="44" y="673" as="sourcePoint" />
            <mxPoint x="45.024" y="606.484" as="targetPoint" />
          </mxGeometry>
        </mxCell>
        <mxCell id="19sE1abQ0TIRROIsZksC-118" value="uses" style="edgeLabel;html=1;align=center;verticalAlign=middle;resizable=0;points=[];fontFamily=Times New Roman;horizontal=0;rotation=-180;" vertex="1" connectable="0" parent="19sE1abQ0TIRROIsZksC-117">
          <mxGeometry x="0.4253" relative="1" as="geometry">
            <mxPoint x="10" y="-17" as="offset" />
          </mxGeometry>
        </mxCell>
        <object label="Top&#xa;" id="19sE1abQ0TIRROIsZksC-96">
          <mxCell parent="0" />
        </object>
        <mxCell id="19sE1abQ0TIRROIsZksC-95" value="" style="endArrow=none;html=1;rounded=0;fontFamily=Times New Roman;startSize=3;endSize=3;strokeWidth=2;startArrow=classic;startFill=1;endFill=0;exitX=0;exitY=0;exitDx=0;exitDy=0;entryX=1;entryY=0.5;entryDx=0;entryDy=0;" edge="1" parent="19sE1abQ0TIRROIsZksC-96" source="19sE1abQ0TIRROIsZksC-59" target="YJhYwYxTLhJLAMdy0_Dd-63">
          <mxGeometry x="603" y="1126" width="50" height="50" as="geometry">
            <mxPoint x="756" y="1125.9999999999995" as="sourcePoint" />
            <mxPoint x="604" y="1125.9999999999995" as="targetPoint" />
          </mxGeometry>
        </mxCell>
        <mxCell id="19sE1abQ0TIRROIsZksC-97" value="" style="endArrow=classic;html=1;rounded=0;fontFamily=Times New Roman;startSize=3;endSize=3;strokeWidth=2;startArrow=none;startFill=0;endFill=1;exitX=0;exitY=0;exitDx=0;exitDy=0;entryX=1;entryY=0.769;entryDx=0;entryDy=0;dashed=1;entryPerimeter=0;" edge="1" parent="19sE1abQ0TIRROIsZksC-96" target="YJhYwYxTLhJLAMdy0_Dd-63">
          <mxGeometry x="603" y="1136" width="50" height="50" as="geometry">
            <mxPoint x="927" y="1461.19" as="sourcePoint" />
            <mxPoint x="604" y="1099.6307692307696" as="targetPoint" />
          </mxGeometry>
        </mxCell>
        <mxCell id="19sE1abQ0TIRROIsZksC-110" value="" style="endArrow=none;html=1;rounded=0;fontFamily=Times New Roman;startSize=3;endSize=3;strokeWidth=2;startArrow=classic;startFill=1;endFill=0;exitX=-0.002;exitY=0.698;exitDx=0;exitDy=0;entryX=1;entryY=0.5;entryDx=0;entryDy=0;exitPerimeter=0;" edge="1" parent="19sE1abQ0TIRROIsZksC-96" source="19sE1abQ0TIRROIsZksC-61">
          <mxGeometry x="604" y="1319" width="50" height="50" as="geometry">
            <mxPoint x="928" y="1644.19" as="sourcePoint" />
            <mxPoint x="605" y="1282.6307692307694" as="targetPoint" />
          </mxGeometry>
        </mxCell>
        <mxCell id="19sE1abQ0TIRROIsZksC-111" value="" style="endArrow=classic;html=1;rounded=0;fontFamily=Times New Roman;startSize=3;endSize=3;strokeWidth=2;startArrow=none;startFill=0;endFill=1;exitX=-0.006;exitY=0.146;exitDx=0;exitDy=0;entryX=1;entryY=0.5;entryDx=0;entryDy=0;dashed=1;exitPerimeter=0;" edge="1" parent="19sE1abQ0TIRROIsZksC-96" source="19sE1abQ0TIRROIsZksC-62">
          <mxGeometry x="604" y="1329" width="50" height="50" as="geometry">
            <mxPoint x="928" y="1654.19" as="sourcePoint" />
            <mxPoint x="605" y="1292.6307692307696" as="targetPoint" />
          </mxGeometry>
        </mxCell>
        <mxCell id="19sE1abQ0TIRROIsZksC-112" value="" style="endArrow=none;html=1;rounded=0;fontFamily=Times New Roman;startSize=3;endSize=3;strokeWidth=2;startArrow=classic;startFill=1;endFill=0;exitX=-0.006;exitY=0.072;exitDx=0;exitDy=0;entryX=1;entryY=0.5;entryDx=0;entryDy=0;exitPerimeter=0;" edge="1" parent="19sE1abQ0TIRROIsZksC-96" source="19sE1abQ0TIRROIsZksC-63">
          <mxGeometry x="605" y="1485" width="50" height="50" as="geometry">
            <mxPoint x="927.5900000000001" y="1706.1689985007497" as="sourcePoint" />
            <mxPoint x="606" y="1448.6307692307691" as="targetPoint" />
          </mxGeometry>
        </mxCell>
        <mxCell id="19sE1abQ0TIRROIsZksC-113" value="" style="endArrow=classic;html=1;rounded=0;fontFamily=Times New Roman;startSize=3;endSize=3;strokeWidth=2;startArrow=none;startFill=0;endFill=1;exitX=-0.006;exitY=0.333;exitDx=0;exitDy=0;entryX=1;entryY=0.5;entryDx=0;entryDy=0;dashed=1;exitPerimeter=0;" edge="1" parent="19sE1abQ0TIRROIsZksC-96" source="19sE1abQ0TIRROIsZksC-63">
          <mxGeometry x="605" y="1495" width="50" height="50" as="geometry">
            <mxPoint x="926.77" y="1715.339829085457" as="sourcePoint" />
            <mxPoint x="606" y="1458.6307692307696" as="targetPoint" />
          </mxGeometry>
        </mxCell>
        <mxCell id="19sE1abQ0TIRROIsZksC-115" style="edgeStyle=none;rounded=0;orthogonalLoop=1;jettySize=auto;html=1;exitX=1;exitY=0.5;exitDx=0;exitDy=0;fontFamily=Times New Roman;startArrow=none;startFill=0;endArrow=none;endFill=0;startSize=3;endSize=3;strokeWidth=1;" edge="1" parent="19sE1abQ0TIRROIsZksC-96" source="YJhYwYxTLhJLAMdy0_Dd-8" target="U3ejUCYZ4DHuvYuuj-Lv-14">
          <mxGeometry relative="1" as="geometry" />
        </mxCell>
      </root>
    </mxGraphModel>
  </diagram>
</mxfile>
